<svg version="1.1" xmlns="http://www.w3.org/2000/svg" style="display: block;" viewBox="0 0 2048 1374" width="1264" height="848" preserveAspectRatio="xMidYMid meet">
<path transform="translate(0,0)" fill="rgb(20,30,54)" d="M 1249.25 329.203 C 1261.82 328.541 1279.8 329.044 1292.74 329.038 C 1321.46 329.108 1350.18 329.02 1378.9 328.773 C 1302.16 401.303 1226.96 477.279 1150.34 550.097 C 1209.75 551.946 1271.9 549.605 1331.52 550.637 C 1353.49 551.017 1388.95 549.015 1409.72 551.076 C 1416.77 556.934 1426.74 567.956 1433.52 574.872 L 1474.02 615.692 C 1474.91 658.691 1474.08 704.652 1474.09 747.912 C 1524.29 748.981 1576.91 748.149 1627.34 748.104 C 1625.91 683.791 1627.06 614.623 1627.1 550.023 C 1695.81 551.873 1765.45 549.691 1834.24 550.647 C 1853.65 550.917 1873.78 549.917 1893.1 550.678 C 1899.29 554.067 1951.11 607.077 1959.7 615.735 C 1961.26 653.783 1958.88 699.688 1959.48 738.502 C 1959.88 764.473 1960.99 814.686 1959.07 840.12 C 1942.33 841.375 1909.74 840.256 1892.13 840.233 L 1761.87 840.219 L 1583.03 840.25 C 1554.99 840.237 1522.17 841.126 1494.58 840.032 C 1488.64 834.792 1480.08 825.362 1474.35 819.412 L 1474.21 840.066 L 1074.19 840.185 L 947.722 840.248 C 929.729 840.296 896.636 841.443 879.657 839.891 C 871.042 830.996 860.925 818.86 852.589 809.363 C 844.548 818.063 831.92 832.749 823.587 839.974 C 764.19 840.758 703.585 840.211 644.066 840.201 C 642.885 873.48 643.226 905.615 643.239 938.881 C 643.244 952.705 644.168 969.605 643.121 983.077 L 415.375 983.02 C 375.859 982.89 333.278 984.022 294.054 982.813 C 288.066 978.078 275.516 965.271 269.738 959.611 C 255.842 946.12 242.078 932.494 228.449 918.735 C 226.459 886.595 227.993 834.488 228.091 800.929 C 228.223 755.931 226.492 701.834 228.503 657.892 L 322.982 657.965 C 324.779 714.695 322.341 772.822 323.334 829.718 C 323.674 849.214 324.226 872.352 323.15 891.504 C 396.577 892.143 475.333 892.841 548.532 891.325 C 547.807 876.968 548.345 858.515 548.357 843.824 L 548.439 757.352 C 548.496 689.093 547.476 618.28 548.788 550.218 C 580.204 550.62 611.624 550.566 643.038 550.055 C 643.928 605.418 642.755 661.039 643.204 716.425 C 643.29 727.029 642.909 737.413 644.038 747.994 C 690.558 748.253 737.079 748.246 783.598 747.975 C 782.398 731.538 783.424 700.59 783.458 682.756 L 783.435 550.211 C 814.669 551.557 848.191 549.739 879.79 550.539 C 878.783 574.431 879.284 600.694 879.267 624.794 L 879.265 748.018 L 1378.05 748.021 L 1377.99 641.127 C 1342.87 642.254 1304.51 641.195 1269.26 641.192 L 1108.2 641.755 C 1079.78 641.721 1048.19 640.777 1020.01 641.923 C 1017.99 620.536 1019.13 574.107 1019.32 551.418 C 1025.77 543.901 1035.83 535.272 1043.22 528.061 C 1058.73 512.636 1074.42 497.388 1090.28 482.32 L 1197.39 378.905 C 1209.15 367.708 1238.3 336.307 1249.25 329.203 z M 1724.76 747.918 C 1770.26 748.261 1815.75 748.307 1861.25 748.055 L 1863.65 747.399 C 1864.45 740.628 1863.97 719.972 1863.97 712.148 L 1863.89 641.068 C 1835.38 641.329 1806.87 641.387 1778.36 641.243 C 1762.73 641.31 1743.29 642.547 1728.17 641.274 L 1724.41 642.539 C 1723.4 648.763 1723.83 671.166 1723.89 678.388 C 1724.09 701.205 1723.53 725.192 1724.76 747.918 z"/>
<path transform="translate(0,0)" fill="rgb(30,58,138)" d="M 33.9347 706.79 C 52.1173 706.949 158.6 704.661 167.61 709.313 C 169.512 713.703 169.583 742.285 168.987 747.564 C 167.459 761.1 172.391 836.365 165.947 842.121 C 143.015 843.863 114.213 843.001 90.9784 843.023 C 73.7808 843.04 49.2698 843.611 33.0155 842.123 C 33.5091 819.393 33.7297 796.657 33.6772 773.921 C 33.5797 752.411 32.8903 728.216 33.9347 706.79 z"/>
<path transform="translate(0,0)" fill="rgb(20,30,54)" d="M 388.719 467.418 C 419.079 468.196 452.17 467.616 482.708 467.596 C 482.71 477.948 483.644 556.128 481.755 559.473 C 452.051 560.512 418.15 559.626 388.078 559.591 C 387.888 548.347 387.092 473.904 388.719 467.418 z"/>
<path transform="translate(0,0)" fill="rgb(20,30,54)" d="M 845.095 900.119 L 940.499 900.272 C 942.02 926.363 940.857 964.161 940.835 990.969 C 911.377 992.131 874.85 991.159 844.998 991.004 C 844.293 976.655 844.86 959.156 844.763 944.523 C 844.678 931.567 843.972 912.523 845.095 900.119 z"/>
<path transform="translate(0,0)" fill="rgb(20,30,54)" d="M 724.407 900.474 C 751.676 900.266 778.946 900.195 806.216 900.263 C 806.577 927.422 807.449 963.039 806.632 989.954 C 804.141 991.576 801.67 991.059 798.25 991.18 L 710.744 991.177 C 710.961 961.042 710.994 930.906 710.843 900.77 L 724.407 900.474 z"/>
</svg>