<svg version="1.1" xmlns="http://www.w3.org/2000/svg" style="display: block;" viewBox="0 0 2048 1374" width="1264" height="848" preserveAspectRatio="xMidYMid meet">
<path transform="translate(0,0)" fill="rgb(20,30,54)" d="M 230.405 516.483 C 231.638 517.351 327.147 714.682 336.945 733.607 C 348.818 710.7 360.685 685.363 372.116 662.075 C 396.095 613.488 419.491 564.615 442.3 515.468 C 455.604 545.524 470.359 593.914 481.684 626.253 L 561.331 854.537 C 545.981 855.365 513.938 855.107 498.748 854.402 C 482.61 804.2 461.934 748.18 444.18 698.389 L 434.059 671.243 L 370.051 797.311 C 360.584 815.826 347.024 843.756 336.503 861.024 C 328.186 848.416 310.212 810.594 302.627 795.426 L 239.485 669.009 C 235.224 683.744 226.484 705.522 221.195 720.671 L 174.035 854.689 C 154.419 855.286 131.682 854.698 111.815 854.679 L 193.308 621.593 C 205.085 588.098 217.464 548.827 230.405 516.483 z"/>
<path transform="translate(0,0)" fill="rgb(20,30,54)" d="M 1506.99 503.709 C 1515.03 510.287 1529.02 524.563 1536.77 532.201 L 1582.07 576.458 C 1630.62 623.561 1678.89 670.958 1726.86 718.647 C 1728.45 653.069 1726.11 585.503 1726.99 519.807 C 1745.15 518.866 1769.11 519.761 1788.05 519.575 L 1788 864.244 L 1779.98 856.334 L 1639.15 716.88 C 1618.67 696.716 1589.08 665.696 1568.04 647.564 L 1568.1 854.765 L 1507.33 854.778 C 1505.52 841.593 1506.82 826.478 1506.74 813.037 L 1506.63 724.945 C 1507.02 651.255 1505.8 577.386 1506.99 503.709 z"/>
<path transform="translate(0,0)" fill="rgb(20,30,54)" d="M 737.023 510.482 C 741.661 515.5 765.656 572.248 770.389 582.624 L 843.524 744.13 C 859.773 779.887 878.168 818.486 893.037 854.579 C 874.191 855.394 850.232 854.714 831.048 854.583 C 822.982 839.286 814.121 817.59 806.992 801.349 C 800.042 802.086 787.677 801.714 780.369 801.706 L 731.897 801.624 C 708.47 802.053 684.091 801.76 660.55 801.927 C 653.186 819.735 645.232 837.292 636.7 854.571 C 623.659 855.574 587.353 854.924 573.796 854.451 C 626.741 739.628 684.13 625.805 737.023 510.482 z M 691.153 741.089 C 706.753 741.143 722.679 741.365 738.25 741.227 C 752.162 741.226 767.193 740.97 781.018 741.302 C 775.165 729.074 740.885 650.424 736.461 645.72 C 721.064 677.369 705.961 709.16 691.153 741.089 z"/>
<path transform="translate(0,0)" fill="rgb(20,30,54)" d="M 962.094 519.487 C 964.726 519.544 967.751 519.18 969.66 520.752 C 970.942 534.902 969.914 563.585 969.91 579.211 L 969.941 696.144 C 1000.21 657.522 1030.19 618.678 1059.89 579.614 C 1071.19 564.81 1094.55 532.353 1106.43 519.823 C 1129.87 518.591 1155.89 520.515 1180.28 519.395 C 1172.15 531.494 1156.31 550.056 1146.7 561.972 L 1084.15 639.446 C 1049.07 684.781 1006.64 736.64 969.963 780.402 L 969.953 854.676 C 949.523 854.811 929.092 854.834 908.661 854.744 C 907.083 773.254 909.243 691.167 908.316 609.63 C 907.978 579.827 907.932 549.501 908.532 519.705 C 926.521 519.51 943.946 519.925 962.094 519.487 z"/>
<path transform="translate(0,0)" fill="rgb(20,30,54)" d="M 1189.96 519.388 C 1210.46 519.631 1239.65 518.701 1259.2 520.128 C 1264.47 526.332 1281.16 554.021 1286.25 562.057 C 1304.7 590.913 1323.01 619.861 1341.17 648.9 L 1396.86 562.188 C 1402.83 552.901 1418.46 527.019 1424.87 519.552 C 1448.15 519.937 1471.81 519.79 1495.13 519.851 L 1411.85 645.843 C 1398.37 666.439 1384.16 687.168 1370.97 707.831 C 1370.23 723.387 1370.79 743.15 1370.81 758.95 L 1370.85 854.644 C 1351.4 855.187 1330.13 854.754 1310.54 854.736 C 1308.66 820.298 1310 785.143 1310.05 750.624 C 1310.07 738.003 1312.03 721.618 1309.15 709.422 C 1306.66 698.857 1225.12 576.611 1211.65 555.805 C 1205.35 546.081 1192.78 530.161 1189.96 519.388 z"/>
<path transform="translate(0,0)" fill="rgb(30,58,138)" d="M 1827.39 732.472 C 1864.96 731.956 1902.54 732.144 1940.11 733.035 C 1941.16 747.608 1942.63 844.813 1939.26 852.983 C 1938.83 854.016 1937.04 854.375 1936.01 854.8 C 1918.62 854.467 1835.81 856.283 1826.14 852.865 C 1821.32 843.743 1827.08 764.483 1824.63 749.8 C 1824.27 747.654 1824.78 736.434 1825.43 733.679 L 1827.39 732.472 z"/>
<path transform="translate(0,0)" fill="rgb(20,30,54)" d="M 1074.21 699.622 C 1082.17 703.089 1206.28 850.942 1206.26 854.088 C 1197.91 855.194 1183.15 854.732 1174.25 854.698 C 1159.47 854.84 1144.68 854.8 1129.9 854.578 C 1122.1 846.998 1113.59 836.257 1106.69 827.702 C 1084.21 799.847 1059.05 773.073 1037.2 744.847 C 1047.22 731.376 1063.2 713.238 1074.21 699.622 z"/>
</svg>