<svg version="1.1" xmlns="http://www.w3.org/2000/svg" style="display: block;" viewBox="0 0 2048 771" width="1869" height="704" preserveAspectRatio="xMidYMid meet">
<path transform="translate(0,0)" fill="rgb(242,238,230)" d="M 1240.65 53.2114 C 1281.61 52.5044 1330.71 52.4462 1371.49 53.4579 C 1362.21 63.624 1347.66 76.8395 1337.49 86.6289 L 1277.25 144.738 L 1190.66 228.316 C 1176.38 242.147 1162.49 256.404 1147.87 269.872 L 1400.54 270.078 C 1420.21 288.368 1445.06 314.217 1464.1 333.765 L 1464.11 464.818 L 1612.38 464.894 L 1612.63 269.989 L 1876.5 269.947 C 1897.77 290.985 1918.86 312.205 1939.77 333.604 C 1940.49 363.153 1940 394.122 1940.01 423.816 L 1939.85 557.939 L 1484.57 557.959 C 1477.64 551.491 1470.87 544.862 1464.25 538.076 L 1464.19 558.323 L 1105.52 558.275 C 1032.41 558.292 954.331 559.764 881.675 557.814 C 873.577 550.29 862.403 537.502 854.607 529.104 C 846.217 537.138 835.564 549.279 827.486 557.959 C 788.787 558.302 750.087 558.388 711.386 558.219 C 693.892 558.218 668.294 559.318 651.606 557.962 C 649.683 600.923 651.788 653.938 651.211 698.141 C 580.677 696.729 505.408 698.039 434.5 698.032 L 306.683 697.931 C 287.577 680.535 261.502 653.151 243.004 634.25 C 241.184 622.795 242.227 572.127 242.223 557.289 L 242.188 375.317 C 272.044 374.329 307.469 375.164 337.845 375.104 L 337.734 604.94 L 556.48 605.031 C 554.579 494.826 556.906 380.562 556.479 269.91 L 651.223 270.004 C 652.691 333.551 651.215 400.707 651.528 464.708 C 694.233 466.052 741.831 464.775 785.064 464.836 L 785.096 335.677 C 785.174 313.861 784.6 291.746 785.206 269.988 C 817.258 270.139 849.311 270.123 881.363 269.938 C 882.04 334.618 880.405 400.307 881.713 464.841 C 940.031 465.639 999.503 465.066 1057.93 465.044 L 1368.73 464.826 L 1368.75 362.94 L 1016.49 362.946 C 1015.87 333.642 1016.44 301.144 1016.78 271.74 C 1089.77 199.174 1166.24 124.232 1240.65 53.2114 z M 1709.86 464.878 L 1844.07 464.906 L 1844.09 362.914 L 1709.87 362.967 L 1709.86 464.878 z"/>
<path transform="translate(0,0)" fill="rgb(30,58,138)" d="M 54.7865 425.268 C 98.6123 425.666 142.441 425.703 186.267 425.379 C 187.386 467.252 186.543 513.971 186.324 556.191 C 185.987 557.337 185.936 557.158 185.057 558.112 L 54.5735 558.107 L 54.7865 425.268 z"/>
<path transform="translate(0,0)" fill="rgb(242,238,230)" d="M 398.607 189.133 C 428.752 188.268 463.609 188.999 493.88 189.134 C 493.887 218.355 494.854 253.38 493.662 281.953 L 398.235 281.804 L 398.607 189.133 z"/>
<path transform="translate(0,0)" fill="rgb(242,238,230)" d="M 714.64 614.175 C 743.559 613.101 780.625 614.085 810.108 614.13 C 810.246 645.026 810.206 675.923 809.989 706.819 L 714.444 706.675 C 714.668 675.843 714.733 645.009 714.64 614.175 z"/>
<path transform="translate(0,0)" fill="rgb(242,238,230)" d="M 845.576 614.165 C 875.441 613.284 910.204 614.028 940.415 614.028 L 940.302 706.81 L 845.386 706.617 C 844.909 677.553 844.716 643.079 845.576 614.165 z"/>
</svg>