<svg version="1.1" xmlns="http://www.w3.org/2000/svg" style="display: block;" viewBox="0 0 2048 553" width="948" height="256" preserveAspectRatio="none">
<path transform="translate(0,0)" fill="rgb(242,238,230)" d="M 424.358 101.297 L 425.683 101.877 C 428.112 104.39 532.901 419.636 544.924 451.776 L 479.761 452.063 C 477.217 440.202 468.308 418.401 464.363 405.834 C 450.066 360.282 428.788 310.872 416.078 265.459 C 407.747 279.586 400.983 294.604 393.817 309.344 C 368.828 360.748 342.088 411.625 318 463.431 L 243.754 311.101 C 238.398 299.951 222.856 271.781 220.245 260.952 C 217.607 269.582 214.415 278.66 211.557 287.27 C 197.694 325.49 184.299 363.878 171.376 402.425 C 166.495 416.554 157.31 438.67 153.947 451.906 C 133.447 452.958 108.506 452.665 87.6079 453.009 C 112.472 383.954 136.71 314.675 160.319 245.182 C 171.215 213.663 197.431 140.25 210.472 104.497 C 211.035 104.223 211.526 103.984 211.945 103.781 C 217.37 109.164 257.379 199.056 262.965 211.065 L 316.47 324.932 C 327.096 304.577 336.347 283.193 346.748 262.642 C 373.617 209.548 397.51 154.333 424.358 101.297 z"/>
<path transform="translate(0,0)" fill="rgb(242,238,230)" d="M 1507.95 87.5439 C 1511.53 89.5816 1533.7 111.863 1538.47 116.555 C 1567.52 145.033 1596.38 173.705 1625.05 202.568 L 1694.99 271.705 C 1707 283.46 1722.98 297.759 1733.84 310.019 L 1733.84 105.056 C 1755.01 104.717 1776.99 105.071 1798.21 105.132 L 1798 461.876 C 1795.27 459.996 1792.51 457.625 1789.93 455.513 C 1760.23 427.273 1731.19 397.505 1702.05 368.614 C 1658.16 325.72 1614.77 282.321 1571.89 238.423 C 1570.99 309.914 1570.72 381.411 1571.07 452.906 C 1550.64 452.509 1527.7 451.59 1507.46 452.267 C 1508.53 369.272 1506.71 285.951 1507.84 202.962 C 1508.33 166.227 1506.18 123.615 1507.95 87.5439 z"/>
<path transform="translate(0,0)" fill="rgb(242,238,230)" d="M 722.98 93.279 C 723.492 93.3381 723.695 93.3485 724.141 93.5521 C 724.361 93.6523 726.012 94.8327 726.034 94.8836 C 732.808 110.476 742.251 132.006 748.838 146.906 L 835.059 343.472 C 845.98 368.37 857.322 393.126 867.603 418.289 C 872.036 429.139 877.832 441.038 881.466 452.065 C 861.808 453.188 836.348 451.889 815.826 452.214 C 810.654 437.568 800.489 412.857 794.144 398.975 C 767.956 398.371 740.767 398.561 714.5 398.423 C 691.477 398.277 668.454 398.468 645.437 398.996 C 639.405 414.976 630.317 437.614 622.935 452.888 C 600.461 452.822 577.988 452.542 555.519 452.046 C 559.551 439.111 574.636 408.923 580.736 395.878 L 630.032 290.91 L 693.856 154.353 C 703.099 134.749 712.916 112.243 722.98 93.279 z M 677.993 334.233 C 693.808 334.915 708.325 333.741 723.5 334.15 L 767.471 334.927 C 763.953 327.549 722.218 237.553 722.299 237.606 C 708.359 270.189 693.586 302.408 677.993 334.233 z"/>
<path transform="translate(0,0)" fill="rgb(242,238,230)" d="M 1102.45 104.461 C 1128.24 104.793 1154.86 104.196 1180.43 104.992 C 1172.56 112.297 1154.84 134.752 1147.61 143.689 C 1126.56 169.696 1105.71 195.87 1085.07 222.21 C 1044.95 272.455 998.319 325.61 960.267 376.651 C 960.45 401.82 960.351 426.989 959.969 452.156 C 938.935 451.919 917.899 452.027 896.869 452.481 L 896.673 341.75 L 896.742 104.998 C 918.119 104.772 939.498 104.756 960.876 104.949 C 960.7 163.76 959.246 229.086 961.174 287.479 C 961.772 286.528 962.382 285.585 963.006 284.651 C 970.675 273.23 984.4 256.292 993.025 244.95 L 1047.97 172.957 C 1064.81 151.301 1081.2 128.796 1098.07 107.137 C 1099.29 105.581 1100.48 104.847 1102.45 104.461 z"/>
<path transform="translate(0,0)" fill="rgb(242,238,230)" d="M 1441.68 104.51 C 1459.93 104.869 1479.95 104.436 1498.38 104.441 C 1489.39 120.021 1475.82 139.383 1465.76 154.723 L 1405.63 246.327 C 1396.79 259.748 1378 286.346 1371.71 300.503 C 1370.04 304.261 1370.85 341.177 1370.86 348.612 L 1370.88 452.144 C 1349.73 452.716 1327.2 452.382 1305.94 452.367 C 1305.29 401.627 1306.94 349.357 1305.47 298.879 C 1300.14 290.449 1294.85 281.99 1289.61 273.502 C 1284.73 264.769 1273.82 249.461 1267.89 240.071 L 1210.32 149.375 C 1203.9 139.239 1187.73 114.96 1183.6 104.878 L 1256.88 104.826 C 1266.82 124.426 1281.67 143.27 1292.75 162.318 C 1307.46 187.597 1324.79 211.777 1338.89 237.311 C 1341.73 232.063 1345.11 226.652 1348.45 221.7 C 1374.36 183.265 1398.61 143.297 1424.58 104.98 L 1441.68 104.51 z"/>
<path transform="translate(0,0)" fill="rgb(30,58,138)" d="M 1835.97 326.19 C 1877.49 325.662 1919.61 325.973 1961.17 325.927 L 1961.06 452.265 C 1920.34 451.662 1876.64 451.216 1836 451.897 L 1835.97 326.19 z"/>
<path transform="translate(0,0)" fill="rgb(242,238,230)" d="M 1067.36 289.874 C 1076.34 297.203 1098.13 324.845 1107.73 335.813 C 1128.99 359.962 1150.1 384.241 1171.06 408.65 C 1182.96 422.431 1197.28 438.275 1207.99 452.534 C 1196.57 452.903 1182.17 452.24 1170.25 452.328 C 1155.19 453.001 1139.87 451.825 1124.3 452.618 C 1108.44 435.856 1088.87 410.723 1073.82 392.987 C 1062.28 379.389 1037.26 351.452 1028.38 337.558 C 1041.25 324.117 1055.65 304.853 1067.36 289.874 z"/>
</svg>